[img]http://img690.imageshack.us/img690/9099/kung2t.jpg[/img]
[code]
Kung fo Panda 2 r6 - PRESTiGE

File size                        : 704 MiB
Duration                         : 1h 23mn
Overall bit rate                 : 1 172 Kbps


Video
ID                               : 0
Format                           : MPEG-4 Visual
Format profile                   : Advanced Simple@L5
Format settings, BVOP            : 2
Format settings, QPel            : No
Format settings, GMC             : No warppoints
Format settings, Matrix          : Default (H.263)
Muxing mode                      : Packed bitstream
Codec ID                         : XVID
Codec ID/Hint                    : XviD
Duration                         : 1h 23mn
Bit rate                         : 970 Kbps
Width                            : 720 pixels
Height                           : 320 pixels
Display aspect ratio             : 2.25:1
Frame rate                       : 25.000 fps
Color space                      : YUV
Chroma subsampling               : 4:2:0
Bit depth                        : 8 bits
Scan type                        : Progressive
Compression mode                 : Lossy
Bits/(Pixel*Frame)               : 0.168
Stream size                      : 583 MiB (83%)
Writing library                  : XviD 64

Audio
ID                               : 1
Format                           : AC-3
Format/Info                      : Audio Coding 3
Mode extension                   : CM (complete main)
Codec ID                         : 2000
Duration                         : 1h 23mn
Bit rate mode                    : Constant
Bit rate                         : 192 Kbps
Channel(s)                       : 2 channels
Channel positions                : Front: L R
Sampling rate                    : 48.0 KHz
Bit depth                        : 16 bits
Compression mode                 : Lossy
Stream size                      : 115 MiB (16%)
Alignment                        : Split accross interleaves
Interleave, duration             : 40 ms (1.00 video frame)
Interleave, preload duration     : 500 ms
source - choice - thanks guys 

Plot:
Po joins forces with a group of new kung-fo masters to take on an old enemy with a deadly new weapon. 
[/code]
Screens:
[img]http://img842.imageshack.us/img842/1922/45761534.png[/img]
[img]http://img710.imageshack.us/img710/852/89362634.png[/img]
[img]http://img535.imageshack.us/img535/106/63206704.png[/img]
[img]http://img811.imageshack.us/img811/1907/69314169.png[/img]
[img]http://img155.imageshack.us/img155/445/99248529.png[/img]